<?xml version="1.0" encoding="UTF-8" standalone="no"?>
<svg width="500" height="500" viewBox="0 0 500 500" xmlns="http://www.w3.org/2000/svg">
    <defs>
        <!-- Gradient for background shading -->
        <radialGradient id="backgroundGradient" cx="50%" cy="50%" r="50%" fx="50%" fy="50%">
            <stop offset="0%" style="stop-color:#f8f9fa;stop-opacity:1" />
            <stop offset="100%" style="stop-color:#e9ecef;stop-opacity:1" />
        </radialGradient>
        <!-- Filter for subtle shadow effect -->
        <filter id="dropShadow" x="-20%" y="-20%" width="140%" height="140%">
            <feGaussianBlur in="SourceAlpha" stdDeviation="2" />
            <feOffset dx="1" dy="1" result="offsetblur" />
            <feComponentTransfer>
                <feFuncA type="linear" slope="0.3" />
            </feComponentTransfer>
            <feMerge>
                <feMergeNode />
                <feMergeNode in="SourceGraphic" />
            </feMerge>
        </filter>
    </defs>
    <!-- Background circle with gradient -->
    <circle cx="250.0" cy="250.0" r="180" fill="url(#backgroundGradient)" filter="url(#dropShadow)" />
    <path d="M 250.0 250.0 L 250.0 70.0 A 180 180 0 0 1 427.26539554219744 281.25667198004743 Z" fill="#E6F2FF" fill-opacity="0.4" />
    <path d="M 250.0 250.0 L 427.26539554219744 281.25667198004743 A 180 180 0 0 1 188.43637420137964 419.1446717414635 Z" fill="#FFE6E6" fill-opacity="0.4" />
    <path d="M 250.0 250.0 L 188.43637420137964 419.1446717414635 A 180 180 0 0 1 94.11542731880104 160.0 Z" fill="#FFFFCC" fill-opacity="0.4" />
    <path d="M 250.0 250.0 L 94.11542731880104 160.0 A 180 180 0 0 1 249.99999999999994 70.0 Z" fill="#E6FFE6" fill-opacity="0.4" />
    <!-- Main circle outline -->
    <circle cx="250.0" cy="250.0" r="150" fill="none" stroke="#505050" stroke-width="2"/>
    <!-- Center point dot -->
    <circle cx="250.0" cy="250.0" r="4" fill="#404040"/>
    <g text-anchor="middle" font-family="Arial">
        <line x1="322.0" y1="125.3" x2="325.0" y2="120.1" stroke="#2c6aa1" stroke-width="1.5" opacity="0.1"/>
        <text x="334.0" y="104.5" dominant-baseline="middle" fill="#2c6aa1" font-size="16" opacity="0.1">03</text>
        <line x1="360.3" y1="157.4" x2="364.9" y2="153.6" stroke="#2c6aa1" stroke-width="1.5" opacity="1.0"/>
        <text x="378.7" y="142.0" dominant-baseline="middle" fill="#2c6aa1" font-size="16" opacity="1.0">05</text>
        <line x1="385.3" y1="200.7" x2="391.0" y2="198.7" stroke="#2c6aa1" stroke-width="1.5" opacity="0.1"/>
        <text x="407.9" y="192.5" dominant-baseline="middle" fill="#2c6aa1" font-size="16" opacity="0.1">07</text>
        <line x1="360.3" y1="342.6" x2="364.9" y2="346.4" stroke="#c13f3c" stroke-width="1.5" opacity="0.1"/>
        <text x="378.7" y="358.0" dominant-baseline="middle" fill="#c13f3c" font-size="16" opacity="0.1">13</text>
        <line x1="322.0" y1="374.7" x2="325.0" y2="379.9" stroke="#c13f3c" stroke-width="1.5" opacity="1.0"/>
        <text x="334.0" y="395.5" dominant-baseline="middle" fill="#c13f3c" font-size="16" opacity="1.0">15</text>
        <line x1="275.0" y1="391.8" x2="276.0" y2="397.7" stroke="#c13f3c" stroke-width="1.5" opacity="0.1"/>
        <text x="279.2" y="415.4" dominant-baseline="middle" fill="#c13f3c" font-size="16" opacity="0.1">17</text>
        <line x1="139.7" y1="342.6" x2="135.1" y2="346.4" stroke="#a37336" stroke-width="1.5" opacity="0.1"/>
        <text x="121.3" y="358.0" dominant-baseline="middle" fill="#a37336" font-size="16" opacity="0.1">23</text>
        <line x1="114.7" y1="299.3" x2="109.0" y2="301.3" stroke="#a37336" stroke-width="1.5" opacity="1.0"/>
        <text x="92.1" y="307.5" dominant-baseline="middle" fill="#a37336" font-size="16" opacity="1.0">25</text>
        <line x1="106.0" y1="250.0" x2="100.0" y2="250.0" stroke="#a37336" stroke-width="1.5" opacity="0.1"/>
        <text x="82.0" y="250.0" dominant-baseline="middle" fill="#a37336" font-size="16" opacity="0.1">27</text>
        <line x1="139.7" y1="157.4" x2="135.1" y2="153.6" stroke="#32795f" stroke-width="1.5" opacity="0.1"/>
        <text x="121.3" y="142.0" dominant-baseline="middle" fill="#32795f" font-size="16" opacity="0.1">31</text>
        <line x1="178.0" y1="125.3" x2="175.0" y2="120.1" stroke="#32795f" stroke-width="1.5" opacity="1.0"/>
        <text x="166.0" y="104.5" dominant-baseline="middle" fill="#32795f" font-size="16" opacity="1.0">33</text>
        <line x1="225.0" y1="108.2" x2="224.0" y2="102.3" stroke="#32795f" stroke-width="1.5" opacity="0.1"/>
        <text x="220.8" y="84.6" dominant-baseline="middle" fill="#32795f" font-size="16" opacity="0.1">35</text>
        <path d="M 10,0 L -5,-6 L -5,6 Z" transform="translate(318.9,192.1) rotate(-40.0)" fill="#2c6aa1" opacity="0.9" />
        <path d="M 10,0 L -5,-6 L -5,6 Z" transform="translate(295.0,327.9) rotate(60.0)" fill="#c13f3c" opacity="0.9" />
        <path d="M 10,0 L -5,-6 L -5,6 Z" transform="translate(165.4,280.8) rotate(160.0)" fill="#a37336" opacity="0.9" />
        <path d="M 10,0 L -5,-6 L -5,6 Z" transform="translate(205.0,172.1) rotate(240.0)" fill="#32795f" opacity="0.9" />
    </g>
</svg>